<svg width="24" height="24" viewBox="0 0 24 24" fill="none" xmlns="http://www.w3.org/2000/svg">
    <path
        d="M15.477 18.6099C15.477 17.3269 14.669 16.5809 13.1199 15.2659C12.7699 14.9659 12.3919 14.6479 12.0019 14.2939C11.5569 14.7029 11.1339 15.0629 10.7459 15.3939C9.19995 16.6999 8.52295 17.3389 8.52295 18.6099C8.52295 19.5321 8.88927 20.4165 9.54134 21.0686C10.1934 21.7206 11.0778 22.0869 11.9999 22.0869C12.9221 22.0869 13.8065 21.7206 14.4586 21.0686C15.1106 20.4165 15.477 19.5321 15.477 18.6099Z"
        fill="currentColor" />
    <path
        d="M16.4084 4.035C15.2084 3.016 13.9684 1.963 12.7144 0.71L12.0004 0L11.3004 0.711C9.04642 2.973 7.98042 6.447 7.51842 8.531C7.1639 7.98206 6.90082 7.37922 6.73942 6.746L6.31242 5.109L5.07942 6.266C2.92042 8.294 1.47942 10.305 1.47942 13.525C1.45866 15.8485 2.21498 18.1123 3.62821 19.9568C5.04144 21.8012 7.03052 23.1205 9.27942 23.705C9.8445 23.8482 10.4199 23.9468 11.0004 24C9.74169 23.7654 8.60452 23.0983 7.78554 22.1141C6.96657 21.1299 6.5173 19.8904 6.51542 18.61C6.51542 16.36 7.87242 15.21 9.44342 13.868C10.0044 13.391 10.6434 12.85 11.2884 12.201L12.0004 11.493L12.7084 12.201C13.2844 12.777 13.8604 13.265 14.4174 13.739C15.9934 15.076 17.4814 16.339 17.4814 18.61C17.4798 19.8853 17.0342 21.1203 16.221 22.1028C15.4079 23.0853 14.278 23.754 13.0254 23.994C15.626 23.7417 18.0393 22.5298 19.7948 20.5946C21.5502 18.6594 22.5219 16.1398 22.5204 13.527C22.5204 9.225 19.6874 6.82 16.4084 4.035Z"
        fill="currentColor" />
</svg>